# xmcd
#
# Track frame offsets:
#	150
#	9732
#	19325
#
# Disc length: 383 seconds
#
# Revision: 0
# Processed by: cddbd v1.4PL0 Copyright (c) Steve Scherf et al.
#
# Submitted via: MusicManager v6.0.0.0
#
DISCID=1c017d03
DTITLE=George Jones - Star Spangled Banner
DYEAR=1900
DGENRE=country
TTITLE0=Star Spangled Banner
TTITLE1=Star Spangled Banner 
TTITLE2=Star Spangled Banner
EXTD=
EXTT0=
EXTT1=
EXTT2=
PLAYORDER=
